<?xml version="1.0" encoding="utf-8"?>
<!DOCTYPE svg PUBLIC "-//W3C//DTD SVG 20010904//EN" "http://www.w3.org/TR/2001/REC-SVG-20010904/DTD/svg10.dtd">
<svg version="1.0" xmlns="http://www.w3.org/2000/svg" width="66pt" height="66pt" viewBox="0 0 66 66" style="" preserveAspectRatio="xMidYMid meet">
<g fill="#FFFFFFFF" stroke="#FFFFFFFF">
<path d="M 7.546 14.250 C 8.489 26.463 8.881 27.852 12.045 30.191 L 14.997 32.374 11.984 35.320 C 8.565 38.663 8.308 39.545 7.639 50.250 L 7.154 58.000 16.592 58.000 C 25.941 58.000 26.064 57.968 29.760 54.581 L 33.490 51.163 36.134 54.331 C 38.738 57.452 38.930 57.505 48.889 57.844 L 59.000 58.187 58.994 51.344 C 58.987 42.503 57.576 37.598 54.296 35.018 L 51.661 32.945 55.034 29.464 C 58.300 26.095 58.422 25.679 58.823 16.492 L 59.239 7.000 52.244 7.000 C 42.461 7.000 39.432 7.801 36.020 11.291 L 33.048 14.331 30.978 11.700 C 28.370 8.384 23.483 7.013 14.243 7.006 L 6.986 7.000 7.546 14.250 M 26.553 13.020 C 27.855 13.515 29.860 14.860 31.008 16.008 L 33.097 18.097 36.078 15.588 C 39.186 12.973 43.712 11.715 50.500 11.580 L 54.500 11.500 54.420 15.500 C 54.285 22.288 53.027 26.814 50.412 29.922 L 47.903 32.903 49.992 34.992 C 52.734 37.734 53.603 40.209 54.474 47.750 L 55.196 54.000 50.348 53.994 C 43.679 53.987 38.782 52.461 36.032 49.534 L 33.712 47.065 30.825 49.494 C 27.419 52.359 22.149 53.987 16.250 53.994 L 12.000 54.000 12.006 49.750 C 12.013 43.851 13.641 38.581 16.506 35.175 L 18.935 32.288 16.466 29.968 C 13.535 27.215 12.013 22.320 12.006 15.621 L 12.000 10.742 18.093 11.431 C 21.445 11.810 25.252 12.525 26.553 13.020 "/></g>
<g fill="#FFFFFFFF" stroke="#FFFFFFFF">
<path d="M 15.006 15.909 C 15.019 19.621 17.372 25.759 20.110 29.224 C 23.039 32.931 23.043 32.957 21.079 34.921 C 18.225 37.775 16.156 42.175 15.376 47.047 L 14.696 51.304 18.953 50.624 C 23.825 49.844 28.225 47.775 31.079 44.921 C 33.043 42.957 33.069 42.961 36.776 45.890 C 40.107 48.523 46.352 50.979 49.750 50.994 C 51.552 51.002 51.323 44.542 49.386 40.700 C 48.498 38.940 46.652 36.303 45.284 34.839 C 42.842 32.227 42.833 32.160 44.801 31.106 C 47.416 29.707 51.000 22.235 51.000 18.184 C 51.000 15.272 50.728 15.000 47.816 15.000 C 44.124 15.000 36.083 18.619 35.312 20.628 C 34.610 22.458 32.549 22.366 30.945 20.434 C 28.963 18.045 23.972 15.718 19.250 14.981 C 15.751 14.434 15.001 14.598 15.006 15.909 M 30.768 26.770 L 33.306 29.540 36.076 26.770 C 37.600 25.246 39.556 24.000 40.423 24.000 C 42.866 24.000 42.289 26.865 39.230 29.924 L 36.460 32.694 39.230 35.232 C 42.496 38.224 42.867 41.000 40.000 41.000 C 37.784 41.000 34.006 37.701 33.989 35.750 C 33.983 35.063 32.825 35.963 31.416 37.750 C 28.391 41.589 23.822 42.395 24.728 38.930 C 25.026 37.792 26.571 35.898 28.162 34.722 L 31.054 32.584 28.633 31.316 C 27.302 30.618 25.738 28.687 25.158 27.024 C 24.207 24.295 24.305 24.000 26.167 24.000 C 27.302 24.000 29.372 25.246 30.768 26.770 "/></g>
</svg>
